<svg xmlns="http://www.w3.org/2000/svg" xmlns:xlink="http://www.w3.org/1999/xlink" width="1920" zoomAndPan="magnify" viewBox="0 0 1440 809.999993" height="1080" preserveAspectRatio="xMidYMid meet" version="1.0"><defs><g/></defs><g fill="#000000" fill-opacity="1"><g transform="translate(122.029309, 358.406647)"><g><path d="M 17.265625 -263.921875 C 17.265625 -271.878906 16.320312 -279.570312 14.4375 -287 C 12.550781 -294.425781 9.832031 -299.707031 6.28125 -302.84375 L 154.09375 -302.84375 C 164.757812 -302.84375 175.21875 -301.164062 185.46875 -297.8125 C 195.71875 -294.46875 204.921875 -289.550781 213.078125 -283.0625 C 221.242188 -276.582031 227.734375 -268.6875 232.546875 -259.375 C 237.359375 -250.0625 239.765625 -239.445312 239.765625 -227.53125 C 239.765625 -212.039062 235.523438 -198.382812 227.046875 -186.5625 C 218.578125 -174.75 207.4375 -166.539062 193.625 -161.9375 C 200.53125 -161.9375 207.644531 -160.628906 214.96875 -158.015625 C 222.289062 -155.398438 229.140625 -151.160156 235.515625 -145.296875 C 241.898438 -139.441406 247.082031 -131.804688 251.0625 -122.390625 C 255.039062 -112.972656 257.03125 -101.675781 257.03125 -88.5 C 257.03125 -73.226562 252.945312 -58.84375 244.78125 -45.34375 C 236.625 -31.851562 224.125 -20.921875 207.28125 -12.546875 C 190.4375 -4.179688 169.148438 0 143.421875 0 L 6.28125 0 C 9.832031 -3.132812 12.550781 -8.46875 14.4375 -16 C 16.320312 -23.53125 17.265625 -31.171875 17.265625 -38.921875 Z M 141.84375 -131.1875 L 87.875 -131.1875 L 87.875 -59 L 141.84375 -59 C 157.332031 -59 168.628906 -62.453125 175.734375 -69.359375 C 182.847656 -76.265625 186.40625 -84.84375 186.40625 -95.09375 C 186.40625 -105.550781 182.847656 -114.179688 175.734375 -120.984375 C 168.628906 -127.785156 157.332031 -131.1875 141.84375 -131.1875 Z M 87.875 -243.84375 L 87.875 -187.359375 L 138.078125 -187.359375 C 146.660156 -187.359375 153.828125 -190.128906 159.578125 -195.671875 C 165.335938 -201.210938 168.21875 -207.851562 168.21875 -215.59375 C 168.21875 -223.34375 165.335938 -229.988281 159.578125 -235.53125 C 153.828125 -241.070312 146.660156 -243.84375 138.078125 -243.84375 Z M 87.875 -243.84375 "/></g></g></g><g fill="#000000" fill-opacity="1"><g transform="translate(385.315021, 358.406647)"><g><path d="M -12.546875 -189.234375 C -4.804688 -189.648438 3.503906 -191.0625 12.390625 -193.46875 C 21.285156 -195.875 30.070312 -198.90625 38.75 -202.5625 C 47.4375 -206.226562 55.597656 -210 63.234375 -213.875 C 70.867188 -217.75 77.300781 -221.253906 82.53125 -224.390625 L 82.53125 -162.875 C 84 -169.78125 86.351562 -176.84375 89.59375 -184.0625 C 92.84375 -191.28125 96.925781 -197.921875 101.84375 -203.984375 C 106.757812 -210.054688 112.5625 -214.972656 119.25 -218.734375 C 125.945312 -222.503906 133.375 -224.390625 141.53125 -224.390625 C 147.8125 -224.390625 153.929688 -223.1875 159.890625 -220.78125 C 165.859375 -218.375 169.890625 -215.8125 171.984375 -213.09375 C 169.046875 -203.46875 166.21875 -193.109375 163.5 -182.015625 C 160.78125 -170.929688 158.585938 -160.160156 156.921875 -149.703125 C 154.398438 -154.085938 149.269531 -157.898438 141.53125 -161.140625 C 133.789062 -164.390625 125.84375 -166.015625 117.6875 -166.015625 C 94.25 -166.015625 82.53125 -157.125 82.53125 -139.34375 L 82.53125 -39.234375 C 82.53125 -31.484375 83.472656 -23.789062 85.359375 -16.15625 C 87.242188 -8.519531 89.960938 -3.132812 93.515625 0 L 7.21875 0 C 10.769531 -3.132812 13.488281 -8.46875 15.375 -16 C 17.257812 -23.53125 18.203125 -31.171875 18.203125 -38.921875 L 18.203125 -142.796875 C 18.203125 -145.097656 17.992188 -148.65625 17.578125 -153.46875 C 17.160156 -158.28125 16.007812 -163.300781 14.125 -168.53125 C 12.238281 -173.757812 9.203125 -178.253906 5.015625 -182.015625 C 0.835938 -185.785156 -5.015625 -187.671875 -12.546875 -187.671875 Z M -12.546875 -189.234375 "/></g></g></g><g fill="#000000" fill-opacity="1"><g transform="translate(569.834664, 358.406647)"><g><path d="M -12.546875 -189.234375 C -4.804688 -189.648438 3.503906 -191.0625 12.390625 -193.46875 C 21.285156 -195.875 30.070312 -198.90625 38.75 -202.5625 C 47.4375 -206.226562 55.597656 -210 63.234375 -213.875 C 70.867188 -217.75 77.300781 -221.253906 82.53125 -224.390625 L 82.53125 -39.234375 C 82.53125 -31.484375 83.472656 -23.789062 85.359375 -16.15625 C 87.242188 -8.519531 89.960938 -3.132812 93.515625 0 L 7.21875 0 C 10.769531 -3.132812 13.488281 -8.46875 15.375 -16 C 17.257812 -23.53125 18.203125 -31.171875 18.203125 -38.921875 L 18.203125 -142.796875 C 18.203125 -145.097656 17.992188 -148.65625 17.578125 -153.46875 C 17.160156 -158.28125 16.007812 -163.300781 14.125 -168.53125 C 12.238281 -173.757812 9.203125 -178.253906 5.015625 -182.015625 C 0.835938 -185.785156 -5.015625 -187.671875 -12.546875 -187.671875 Z M 51.46875 -239.453125 C 43.726562 -239.453125 36.71875 -241.332031 30.4375 -245.09375 C 24.164062 -248.863281 19.144531 -253.9375 15.375 -260.3125 C 11.613281 -266.695312 9.734375 -273.65625 9.734375 -281.1875 C 9.734375 -288.925781 11.613281 -295.984375 15.375 -302.359375 C 19.144531 -308.742188 24.164062 -313.820312 30.4375 -317.59375 C 36.71875 -321.363281 43.726562 -323.25 51.46875 -323.25 C 59.207031 -323.25 66.265625 -321.363281 72.640625 -317.59375 C 79.023438 -313.820312 84.097656 -308.742188 87.859375 -302.359375 C 91.628906 -295.984375 93.515625 -288.925781 93.515625 -281.1875 C 93.515625 -273.65625 91.628906 -266.695312 87.859375 -260.3125 C 84.097656 -253.9375 79.023438 -248.863281 72.640625 -245.09375 C 66.265625 -241.332031 59.207031 -239.453125 51.46875 -239.453125 Z M 51.46875 -239.453125 "/></g></g></g><g fill="#000000" fill-opacity="1"><g transform="translate(669.625922, 358.406647)"><g><path d="M 9.421875 -102.625 C 9.421875 -116.851562 11.40625 -130.921875 15.375 -144.828125 C 19.351562 -158.742188 25.421875 -171.347656 33.578125 -182.640625 C 41.734375 -193.941406 51.984375 -202.941406 64.328125 -209.640625 C 76.671875 -216.335938 91.316406 -219.6875 108.265625 -219.6875 L 213.09375 -219.6875 C 209.53125 -216.539062 206.804688 -211.253906 204.921875 -203.828125 C 203.046875 -196.398438 202.109375 -188.710938 202.109375 -180.765625 L 202.109375 23.53125 C 202.109375 29.394531 202.628906 35.253906 203.671875 41.109375 C 204.722656 46.972656 206.972656 51.835938 210.421875 55.703125 C 213.867188 59.578125 219.359375 61.515625 226.890625 61.515625 L 226.890625 63.078125 C 220.828125 66.210938 214.445312 69.660156 207.75 73.421875 C 201.0625 77.191406 194.628906 80.75 188.453125 84.09375 C 182.285156 87.445312 176.847656 90.222656 172.140625 92.421875 C 167.429688 94.617188 164.132812 95.71875 162.25 95.71875 C 157.019531 95.71875 152.570312 93.519531 148.90625 89.125 C 145.25 84.726562 142.476562 79.234375 140.59375 72.640625 C 138.707031 66.054688 137.765625 59.625 137.765625 53.34375 L 137.765625 -66.21875 L 108.265625 1.5625 C 104.503906 2.820312 101.421875 3.660156 99.015625 4.078125 C 96.609375 4.492188 93.625 4.703125 90.0625 4.703125 C 76.882812 4.703125 65.273438 1.722656 55.234375 -4.234375 C 45.191406 -10.203125 36.769531 -18.257812 29.96875 -28.40625 C 23.164062 -38.550781 18.039062 -50.003906 14.59375 -62.765625 C 11.144531 -75.523438 9.421875 -88.8125 9.421875 -102.625 Z M 75.3125 -98.859375 C 75.3125 -90.273438 76.722656 -82.320312 79.546875 -75 C 82.378906 -67.675781 86.410156 -61.816406 91.640625 -57.421875 C 96.867188 -53.035156 103.039062 -50.84375 110.15625 -50.84375 C 116.425781 -50.84375 121.390625 -52.566406 125.046875 -56.015625 C 128.710938 -59.472656 131.4375 -63.5 133.21875 -68.09375 C 135 -72.695312 136.203125 -76.878906 136.828125 -80.640625 C 137.453125 -84.410156 137.765625 -86.613281 137.765625 -87.25 L 137.765625 -155.96875 C 135.253906 -157.226562 132.429688 -158.222656 129.296875 -158.953125 C 126.160156 -159.679688 122.707031 -160.046875 118.9375 -160.046875 C 109.519531 -160.046875 101.566406 -157.066406 95.078125 -151.109375 C 88.597656 -145.148438 83.679688 -137.515625 80.328125 -128.203125 C 76.984375 -118.890625 75.3125 -109.109375 75.3125 -98.859375 Z M 75.3125 -98.859375 "/></g></g></g><g fill="#000000" fill-opacity="1"><g transform="translate(887.095488, 358.406647)"><g><path d="M 15.0625 -142.796875 C 15.0625 -145.097656 14.851562 -148.65625 14.4375 -153.46875 C 14.019531 -158.28125 12.867188 -163.300781 10.984375 -168.53125 C 9.097656 -173.757812 6.0625 -178.253906 1.875 -182.015625 C -2.300781 -185.785156 -8.15625 -187.671875 -15.6875 -187.671875 L -15.6875 -189.234375 C -7.945312 -189.648438 0.363281 -191.0625 9.25 -193.46875 C 18.144531 -195.875 26.929688 -198.90625 35.609375 -202.5625 C 44.296875 -206.226562 52.457031 -210 60.09375 -213.875 C 67.726562 -217.75 74.164062 -221.253906 79.40625 -224.390625 L 79.40625 -81.28125 C 79.40625 -71.238281 82.019531 -63.5 87.25 -58.0625 C 92.476562 -52.625 98.960938 -49.90625 106.703125 -49.90625 C 116.535156 -49.90625 124.066406 -53.039062 129.296875 -59.3125 C 134.523438 -65.59375 138.289062 -72.289062 140.59375 -79.40625 L 140.59375 -142.796875 C 140.59375 -145.097656 140.382812 -148.65625 139.96875 -153.46875 C 139.550781 -158.28125 138.398438 -163.300781 136.515625 -168.53125 C 134.628906 -173.757812 131.59375 -178.253906 127.40625 -182.015625 C 123.226562 -185.785156 117.375 -187.671875 109.84375 -187.671875 L 109.84375 -189.234375 C 117.582031 -189.648438 125.894531 -191.0625 134.78125 -193.46875 C 143.675781 -195.875 152.460938 -198.90625 161.140625 -202.5625 C 169.828125 -206.226562 177.988281 -210 185.625 -213.875 C 193.257812 -217.75 199.695312 -221.253906 204.9375 -224.390625 L 204.9375 -156.921875 C 204.9375 -142.691406 204.9375 -128.671875 204.9375 -114.859375 C 204.9375 -101.054688 204.9375 -85.257812 204.9375 -67.46875 C 204.9375 -61.613281 205.457031 -55.753906 206.5 -49.890625 C 207.539062 -44.035156 209.785156 -39.171875 213.234375 -35.296875 C 216.691406 -31.429688 222.1875 -29.5 229.71875 -29.5 L 229.71875 -27.9375 C 223.65625 -24.789062 217.273438 -21.332031 210.578125 -17.5625 C 203.878906 -13.800781 197.441406 -10.25 191.265625 -6.90625 C 185.097656 -3.5625 179.660156 -0.789062 174.953125 1.40625 C 170.242188 3.601562 166.953125 4.703125 165.078125 4.703125 C 159.847656 4.703125 155.398438 2.507812 151.734375 -1.875 C 148.078125 -6.269531 145.304688 -11.765625 143.421875 -18.359375 C 141.535156 -24.953125 140.59375 -31.382812 140.59375 -37.65625 L 140.59375 -67.46875 L 108.578125 -3.453125 C 104.609375 -1.148438 100.21875 0.78125 95.40625 2.34375 C 90.59375 3.914062 85.257812 4.703125 79.40625 4.703125 C 59.519531 4.703125 43.820312 -1.097656 32.3125 -12.703125 C 20.8125 -24.316406 15.0625 -41.945312 15.0625 -65.59375 Z M 15.0625 -142.796875 "/></g></g></g><g fill="#000000" fill-opacity="1"><g transform="translate(1110.52747, 358.406647)"><g><path d="M 118 4.703125 C 99.582031 4.703125 83.519531 1.671875 69.8125 -4.390625 C 56.113281 -10.460938 44.816406 -18.78125 35.921875 -29.34375 C 27.035156 -39.90625 20.394531 -52.085938 16 -65.890625 C 11.613281 -79.703125 9.421875 -94.351562 9.421875 -109.84375 C 9.421875 -125.320312 11.71875 -139.960938 16.3125 -153.765625 C 20.914062 -167.578125 27.875 -179.765625 37.1875 -190.328125 C 46.5 -200.898438 58.109375 -209.21875 72.015625 -215.28125 C 85.929688 -221.351562 102.304688 -224.390625 121.140625 -224.390625 C 137.035156 -224.390625 150.945312 -221.09375 162.875 -214.5 C 174.800781 -207.90625 184.054688 -199.429688 190.640625 -189.078125 C 197.234375 -178.722656 200.53125 -168.003906 200.53125 -156.921875 C 200.53125 -146.453125 197.757812 -136.300781 192.21875 -126.46875 C 186.675781 -116.632812 177.578125 -108.628906 164.921875 -102.453125 C 152.265625 -96.285156 135.160156 -93.203125 113.609375 -93.203125 L 76.890625 -93.203125 C 79.398438 -82.117188 84.421875 -73.4375 91.953125 -67.15625 C 99.484375 -60.882812 109.109375 -57.75 120.828125 -57.75 C 128.566406 -57.75 135.207031 -59.316406 140.75 -62.453125 C 146.289062 -65.585938 150.890625 -69.195312 154.546875 -73.28125 C 158.210938 -77.363281 160.78125 -80.765625 162.25 -83.484375 C 167.476562 -75.316406 173.648438 -67.414062 180.765625 -59.78125 C 187.878906 -52.144531 194.675781 -45.398438 201.15625 -39.546875 C 191.957031 -24.898438 179.878906 -13.863281 164.921875 -6.4375 C 149.960938 0.988281 134.320312 4.703125 118 4.703125 Z M 76.265625 -96.65625 C 86.304688 -98.539062 96.03125 -101.835938 105.4375 -106.546875 C 114.851562 -111.253906 122.644531 -117.164062 128.8125 -124.28125 C 134.988281 -131.394531 138.078125 -139.445312 138.078125 -148.4375 C 138.078125 -152.625 136.613281 -156.703125 133.6875 -160.671875 C 130.757812 -164.648438 125.945312 -166.640625 119.25 -166.640625 C 113.1875 -166.640625 106.753906 -164.492188 99.953125 -160.203125 C 93.148438 -155.921875 87.34375 -149.539062 82.53125 -141.0625 C 77.71875 -132.59375 75.3125 -122.1875 75.3125 -109.84375 C 75.3125 -105.238281 75.628906 -100.84375 76.265625 -96.65625 Z M 76.265625 -96.65625 "/></g></g></g><g fill="#000000" fill-opacity="1"><g transform="translate(64.113272, 733.925132)"><g><path d="M 17.265625 -263.921875 C 17.265625 -271.878906 16.320312 -279.570312 14.4375 -287 C 12.550781 -294.425781 9.832031 -299.707031 6.28125 -302.84375 L 154.09375 -302.84375 C 164.757812 -302.84375 175.21875 -301.164062 185.46875 -297.8125 C 195.71875 -294.46875 204.921875 -289.550781 213.078125 -283.0625 C 221.242188 -276.582031 227.734375 -268.6875 232.546875 -259.375 C 237.359375 -250.0625 239.765625 -239.445312 239.765625 -227.53125 C 239.765625 -212.039062 235.523438 -198.382812 227.046875 -186.5625 C 218.578125 -174.75 207.4375 -166.539062 193.625 -161.9375 C 200.53125 -161.9375 207.644531 -160.628906 214.96875 -158.015625 C 222.289062 -155.398438 229.140625 -151.160156 235.515625 -145.296875 C 241.898438 -139.441406 247.082031 -131.804688 251.0625 -122.390625 C 255.039062 -112.972656 257.03125 -101.675781 257.03125 -88.5 C 257.03125 -73.226562 252.945312 -58.84375 244.78125 -45.34375 C 236.625 -31.851562 224.125 -20.921875 207.28125 -12.546875 C 190.4375 -4.179688 169.148438 0 143.421875 0 L 6.28125 0 C 9.832031 -3.132812 12.550781 -8.46875 14.4375 -16 C 16.320312 -23.53125 17.265625 -31.171875 17.265625 -38.921875 Z M 141.84375 -131.1875 L 87.875 -131.1875 L 87.875 -59 L 141.84375 -59 C 157.332031 -59 168.628906 -62.453125 175.734375 -69.359375 C 182.847656 -76.265625 186.40625 -84.84375 186.40625 -95.09375 C 186.40625 -105.550781 182.847656 -114.179688 175.734375 -120.984375 C 168.628906 -127.785156 157.332031 -131.1875 141.84375 -131.1875 Z M 87.875 -243.84375 L 87.875 -187.359375 L 138.078125 -187.359375 C 146.660156 -187.359375 153.828125 -190.128906 159.578125 -195.671875 C 165.335938 -201.210938 168.21875 -207.851562 168.21875 -215.59375 C 168.21875 -223.34375 165.335938 -229.988281 159.578125 -235.53125 C 153.828125 -241.070312 146.660156 -243.84375 138.078125 -243.84375 Z M 87.875 -243.84375 "/></g></g></g><g fill="#000000" fill-opacity="1"><g transform="translate(327.398983, 733.925132)"><g><path d="M 15.0625 -142.796875 C 15.0625 -145.097656 14.851562 -148.65625 14.4375 -153.46875 C 14.019531 -158.28125 12.867188 -163.300781 10.984375 -168.53125 C 9.097656 -173.757812 6.0625 -178.253906 1.875 -182.015625 C -2.300781 -185.785156 -8.15625 -187.671875 -15.6875 -187.671875 L -15.6875 -189.234375 C -7.945312 -189.648438 0.363281 -191.0625 9.25 -193.46875 C 18.144531 -195.875 26.929688 -198.90625 35.609375 -202.5625 C 44.296875 -206.226562 52.457031 -210 60.09375 -213.875 C 67.726562 -217.75 74.164062 -221.253906 79.40625 -224.390625 L 79.40625 -81.28125 C 79.40625 -71.238281 82.019531 -63.5 87.25 -58.0625 C 92.476562 -52.625 98.960938 -49.90625 106.703125 -49.90625 C 116.535156 -49.90625 124.066406 -53.039062 129.296875 -59.3125 C 134.523438 -65.59375 138.289062 -72.289062 140.59375 -79.40625 L 140.59375 -142.796875 C 140.59375 -145.097656 140.382812 -148.65625 139.96875 -153.46875 C 139.550781 -158.28125 138.398438 -163.300781 136.515625 -168.53125 C 134.628906 -173.757812 131.59375 -178.253906 127.40625 -182.015625 C 123.226562 -185.785156 117.375 -187.671875 109.84375 -187.671875 L 109.84375 -189.234375 C 117.582031 -189.648438 125.894531 -191.0625 134.78125 -193.46875 C 143.675781 -195.875 152.460938 -198.90625 161.140625 -202.5625 C 169.828125 -206.226562 177.988281 -210 185.625 -213.875 C 193.257812 -217.75 199.695312 -221.253906 204.9375 -224.390625 L 204.9375 -156.921875 C 204.9375 -142.691406 204.9375 -128.671875 204.9375 -114.859375 C 204.9375 -101.054688 204.9375 -85.257812 204.9375 -67.46875 C 204.9375 -61.613281 205.457031 -55.753906 206.5 -49.890625 C 207.539062 -44.035156 209.785156 -39.171875 213.234375 -35.296875 C 216.691406 -31.429688 222.1875 -29.5 229.71875 -29.5 L 229.71875 -27.9375 C 223.65625 -24.789062 217.273438 -21.332031 210.578125 -17.5625 C 203.878906 -13.800781 197.441406 -10.25 191.265625 -6.90625 C 185.097656 -3.5625 179.660156 -0.789062 174.953125 1.40625 C 170.242188 3.601562 166.953125 4.703125 165.078125 4.703125 C 159.847656 4.703125 155.398438 2.507812 151.734375 -1.875 C 148.078125 -6.269531 145.304688 -11.765625 143.421875 -18.359375 C 141.535156 -24.953125 140.59375 -31.382812 140.59375 -37.65625 L 140.59375 -67.46875 L 108.578125 -3.453125 C 104.609375 -1.148438 100.21875 0.78125 95.40625 2.34375 C 90.59375 3.914062 85.257812 4.703125 79.40625 4.703125 C 59.519531 4.703125 43.820312 -1.097656 32.3125 -12.703125 C 20.8125 -24.316406 15.0625 -41.945312 15.0625 -65.59375 Z M 15.0625 -142.796875 "/></g></g></g><g fill="#000000" fill-opacity="1"><g transform="translate(550.830965, 733.925132)"><g><path d="M 6.28125 -154.40625 C 6.28125 -166.332031 8.894531 -176.6875 14.125 -185.46875 C 19.351562 -194.257812 26.410156 -201.53125 35.296875 -207.28125 C 44.191406 -213.03125 54.023438 -217.316406 64.796875 -220.140625 C 75.578125 -222.972656 86.617188 -224.390625 97.921875 -224.390625 C 107.753906 -224.390625 117.953125 -223.5 128.515625 -221.71875 C 139.078125 -219.9375 149.117188 -217.476562 158.640625 -214.34375 C 168.160156 -211.207031 176.160156 -207.441406 182.640625 -203.046875 C 180.765625 -197.816406 178.625 -191.488281 176.21875 -184.0625 C 173.8125 -176.632812 171.5625 -168.992188 169.46875 -161.140625 C 167.375 -153.296875 165.59375 -146.03125 164.125 -139.34375 C 161.40625 -142.269531 157.117188 -145.351562 151.265625 -148.59375 C 145.410156 -151.84375 138.710938 -154.878906 131.171875 -157.703125 C 123.640625 -160.523438 115.898438 -162.875 107.953125 -164.75 C 100.003906 -166.632812 92.578125 -167.578125 85.671875 -167.578125 C 75.003906 -167.578125 69.671875 -164.234375 69.671875 -157.546875 C 69.671875 -153.984375 72.390625 -151 77.828125 -148.59375 C 83.265625 -146.1875 90.269531 -143.78125 98.84375 -141.375 C 107.425781 -138.96875 116.53125 -136.09375 126.15625 -132.75 C 135.78125 -129.40625 144.878906 -125.113281 153.453125 -119.875 C 162.035156 -114.644531 169.046875 -108.003906 174.484375 -99.953125 C 179.921875 -91.898438 182.640625 -81.910156 182.640625 -69.984375 C 182.640625 -58.265625 179.972656 -47.75 174.640625 -38.4375 C 169.304688 -29.132812 162.140625 -21.289062 153.140625 -14.90625 C 144.148438 -8.519531 134.054688 -3.65625 122.859375 -0.3125 C 111.671875 3.03125 100.21875 4.703125 88.5 4.703125 C 71.96875 4.703125 57.320312 2.71875 44.5625 -1.25 C 31.800781 -5.226562 19.039062 -11.085938 6.28125 -18.828125 C 9.625 -28.242188 12.550781 -38.234375 15.0625 -48.796875 C 17.570312 -59.367188 19.875 -69.570312 21.96875 -79.40625 C 24.894531 -77.101562 30.019531 -74.015625 37.34375 -70.140625 C 44.664062 -66.265625 53.347656 -62.8125 63.390625 -59.78125 C 73.429688 -56.75 83.894531 -55.234375 94.78125 -55.234375 C 97.914062 -55.234375 101.363281 -55.441406 105.125 -55.859375 C 108.894531 -56.273438 112.140625 -57.210938 114.859375 -58.671875 C 117.578125 -60.140625 118.9375 -62.445312 118.9375 -65.59375 C 118.9375 -69.5625 116.21875 -72.75 110.78125 -75.15625 C 105.34375 -77.5625 98.332031 -79.863281 89.75 -82.0625 C 81.175781 -84.257812 72.128906 -86.875 62.609375 -89.90625 C 53.085938 -92.945312 44.035156 -97.03125 35.453125 -102.15625 C 26.878906 -107.28125 19.875 -114.078125 14.4375 -122.546875 C 9 -131.023438 6.28125 -141.644531 6.28125 -154.40625 Z M 6.28125 -154.40625 "/></g></g></g><g fill="#000000" fill-opacity="1"><g transform="translate(739.743954, 733.925132)"><g><path d="M 0 -160.046875 L 0 -219.6875 C 5.851562 -222.195312 12.492188 -225.75 19.921875 -230.34375 C 27.347656 -234.945312 34.929688 -240.28125 42.671875 -246.34375 C 50.421875 -252.414062 57.640625 -258.75 64.328125 -265.34375 C 71.023438 -271.9375 76.570312 -278.367188 80.96875 -284.640625 L 82.53125 -284.640625 L 82.53125 -219.6875 L 129.921875 -219.6875 L 129.921875 -160.046875 L 82.53125 -160.046875 L 82.53125 -88.8125 C 82.53125 -74.582031 84.625 -65.0625 88.8125 -60.25 C 93 -55.4375 98.960938 -53.03125 106.703125 -53.03125 C 111.515625 -53.03125 115.800781 -53.972656 119.5625 -55.859375 C 123.332031 -57.742188 126.679688 -60.359375 129.609375 -63.703125 C 130.660156 -54.285156 132.332031 -45.179688 134.625 -36.390625 C 136.925781 -27.609375 138.914062 -19.660156 140.59375 -12.546875 C 135.363281 -7.523438 128.039062 -3.394531 118.625 -0.15625 C 109.207031 3.082031 99.476562 4.703125 89.4375 4.703125 C 66.007812 4.703125 48.332031 -2.195312 36.40625 -16 C 24.476562 -29.8125 18.515625 -49.375 18.515625 -74.6875 L 18.515625 -160.046875 Z M 0 -160.046875 "/></g></g></g><g fill="#000000" fill-opacity="1"><g transform="translate(889.744606, 733.925132)"><g><path d="M 118 4.703125 C 99.582031 4.703125 83.519531 1.671875 69.8125 -4.390625 C 56.113281 -10.460938 44.816406 -18.78125 35.921875 -29.34375 C 27.035156 -39.90625 20.394531 -52.085938 16 -65.890625 C 11.613281 -79.703125 9.421875 -94.351562 9.421875 -109.84375 C 9.421875 -125.320312 11.71875 -139.960938 16.3125 -153.765625 C 20.914062 -167.578125 27.875 -179.765625 37.1875 -190.328125 C 46.5 -200.898438 58.109375 -209.21875 72.015625 -215.28125 C 85.929688 -221.351562 102.304688 -224.390625 121.140625 -224.390625 C 137.035156 -224.390625 150.945312 -221.09375 162.875 -214.5 C 174.800781 -207.90625 184.054688 -199.429688 190.640625 -189.078125 C 197.234375 -178.722656 200.53125 -168.003906 200.53125 -156.921875 C 200.53125 -146.453125 197.757812 -136.300781 192.21875 -126.46875 C 186.675781 -116.632812 177.578125 -108.628906 164.921875 -102.453125 C 152.265625 -96.285156 135.160156 -93.203125 113.609375 -93.203125 L 76.890625 -93.203125 C 79.398438 -82.117188 84.421875 -73.4375 91.953125 -67.15625 C 99.484375 -60.882812 109.109375 -57.75 120.828125 -57.75 C 128.566406 -57.75 135.207031 -59.316406 140.75 -62.453125 C 146.289062 -65.585938 150.890625 -69.195312 154.546875 -73.28125 C 158.210938 -77.363281 160.78125 -80.765625 162.25 -83.484375 C 167.476562 -75.316406 173.648438 -67.414062 180.765625 -59.78125 C 187.878906 -52.144531 194.675781 -45.398438 201.15625 -39.546875 C 191.957031 -24.898438 179.878906 -13.863281 164.921875 -6.4375 C 149.960938 0.988281 134.320312 4.703125 118 4.703125 Z M 76.265625 -96.65625 C 86.304688 -98.539062 96.03125 -101.835938 105.4375 -106.546875 C 114.851562 -111.253906 122.644531 -117.164062 128.8125 -124.28125 C 134.988281 -131.394531 138.078125 -139.445312 138.078125 -148.4375 C 138.078125 -152.625 136.613281 -156.703125 133.6875 -160.671875 C 130.757812 -164.648438 125.945312 -166.640625 119.25 -166.640625 C 113.1875 -166.640625 106.753906 -164.492188 99.953125 -160.203125 C 93.148438 -155.921875 87.34375 -149.539062 82.53125 -141.0625 C 77.71875 -132.59375 75.3125 -122.1875 75.3125 -109.84375 C 75.3125 -105.238281 75.628906 -100.84375 76.265625 -96.65625 Z M 76.265625 -96.65625 "/></g></g></g><g fill="#000000" fill-opacity="1"><g transform="translate(1097.172321, 733.925132)"><g><path d="M -12.546875 -189.234375 C -4.804688 -189.648438 3.503906 -191.0625 12.390625 -193.46875 C 21.285156 -195.875 30.070312 -198.90625 38.75 -202.5625 C 47.4375 -206.226562 55.597656 -210 63.234375 -213.875 C 70.867188 -217.75 77.300781 -221.253906 82.53125 -224.390625 L 82.53125 -162.875 C 84 -169.78125 86.351562 -176.84375 89.59375 -184.0625 C 92.84375 -191.28125 96.925781 -197.921875 101.84375 -203.984375 C 106.757812 -210.054688 112.5625 -214.972656 119.25 -218.734375 C 125.945312 -222.503906 133.375 -224.390625 141.53125 -224.390625 C 147.8125 -224.390625 153.929688 -223.1875 159.890625 -220.78125 C 165.859375 -218.375 169.890625 -215.8125 171.984375 -213.09375 C 169.046875 -203.46875 166.21875 -193.109375 163.5 -182.015625 C 160.78125 -170.929688 158.585938 -160.160156 156.921875 -149.703125 C 154.398438 -154.085938 149.269531 -157.898438 141.53125 -161.140625 C 133.789062 -164.390625 125.84375 -166.015625 117.6875 -166.015625 C 94.25 -166.015625 82.53125 -157.125 82.53125 -139.34375 L 82.53125 -39.234375 C 82.53125 -31.484375 83.472656 -23.789062 85.359375 -16.15625 C 87.242188 -8.519531 89.960938 -3.132812 93.515625 0 L 7.21875 0 C 10.769531 -3.132812 13.488281 -8.46875 15.375 -16 C 17.257812 -23.53125 18.203125 -31.171875 18.203125 -38.921875 L 18.203125 -142.796875 C 18.203125 -145.097656 17.992188 -148.65625 17.578125 -153.46875 C 17.160156 -158.28125 16.007812 -163.300781 14.125 -168.53125 C 12.238281 -173.757812 9.203125 -178.253906 5.015625 -182.015625 C 0.835938 -185.785156 -5.015625 -187.671875 -12.546875 -187.671875 Z M -12.546875 -189.234375 "/></g></g></g><g fill="#000000" fill-opacity="1"><g transform="translate(1281.715772, 733.925132)"><g/></g></g></svg>