<svg xmlns="http://www.w3.org/2000/svg" xmlns:xlink="http://www.w3.org/1999/xlink" width="1920" zoomAndPan="magnify" viewBox="0 0 1440 809.999993" height="1080" preserveAspectRatio="xMidYMid meet" version="1.0"><defs><clipPath id="855b020000"><path d="M 216 389 L 1224 389 L 1224 728.96875 L 216 728.96875 Z M 216 389 " clip-rule="nonzero"/></clipPath><clipPath id="0849fca2dd"><path d="M 216 353 L 1224 353 L 1224 692 L 216 692 Z M 216 353 " clip-rule="nonzero"/></clipPath><clipPath id="f4b89d9c79"><path d="M 216 316 L 1224 316 L 1224 656 L 216 656 Z M 216 316 " clip-rule="nonzero"/></clipPath><clipPath id="650e4d4a9d"><path d="M 0 74 L 228.039062 74 L 228.039062 413 L 0 413 Z M 0 74 " clip-rule="nonzero"/></clipPath><clipPath id="428ca24690"><path d="M 0 37 L 228.039062 37 L 228.039062 377 L 0 377 Z M 0 37 " clip-rule="nonzero"/></clipPath><clipPath id="99f67f91ca"><path d="M 0 0 L 228.039062 0 L 228.039062 340 L 0 340 Z M 0 0 " clip-rule="nonzero"/></clipPath><clipPath id="090db191c5"><path d="M 1139.898438 389 L 1440 389 L 1440 728.96875 L 1139.898438 728.96875 Z M 1139.898438 389 " clip-rule="nonzero"/></clipPath><clipPath id="8cfc0d2b75"><path d="M 1139.898438 353 L 1440 353 L 1440 692 L 1139.898438 692 Z M 1139.898438 353 " clip-rule="nonzero"/></clipPath><clipPath id="0b53e5254f"><path d="M 1139.898438 316 L 1440 316 L 1440 656 L 1139.898438 656 Z M 1139.898438 316 " clip-rule="nonzero"/></clipPath></defs><rect x="-144" width="1728" fill="#ffffff" y="-80.999999" height="971.999992" fill-opacity="1"/><rect x="-144" width="1728" fill="#ffffff" y="-80.999999" height="971.999992" fill-opacity="1"/><g clip-path="url(#855b020000)"><path fill="#fe7b31" d="M 1075.515625 705.519531 C 933.707031 705.480469 748.40625 705.546875 606.765625 705.519531 C 596.136719 705.445312 585.261719 704.699219 574.785156 702.804688 C 551.820312 698.902344 529.558594 690.390625 509.769531 678.105469 C 459.097656 647.089844 425.65625 590.347656 423.417969 530.949219 C 423.199219 521.425781 423.128906 510.824219 421.496094 501.4375 C 414.71875 457.535156 384.230469 418.472656 343.421875 401.019531 C 336.351562 397.957031 328.777344 395.382812 321.265625 393.660156 C 299.679688 386.808594 238.769531 391.332031 216 390.050781 L 216 413.179688 C 222.375 413.523438 296.429688 412.628906 300.0625 413.625 C 308.570312 414.320312 317.117188 416.066406 325.199219 418.796875 C 364.203125 431.394531 394.203125 467.5625 399.105469 508.296875 C 400.183594 515.636719 400.058594 524.546875 400.3125 531.976562 C 402.84375 598.890625 440.492188 662.816406 497.574219 697.753906 C 519.875 711.597656 544.972656 721.191406 570.855469 725.59375 C 582.605469 727.714844 594.855469 728.570312 606.765625 728.648438 C 801.390625 728.640625 1029.320312 728.648438 1224.03125 728.648438 L 1224.03125 705.519531 Z M 1075.515625 705.519531 " fill-opacity="1" fill-rule="nonzero"/></g><g clip-path="url(#0849fca2dd)"><path fill="#b3331f" d="M 1224.03125 668.847656 L 1224.03125 691.976562 C 1030.929688 691.957031 804.410156 691.988281 611.40625 691.976562 C 599.996094 692.0625 588.335938 691.507812 577.089844 689.457031 C 529.453125 681.527344 486.292969 651.804688 461.316406 610.539062 C 447.578125 587.820312 439.121094 561.8125 437.273438 535.308594 C 436.5625 526.574219 436.921875 516.539062 436.007812 507.808594 C 431.136719 456.136719 396.558594 408.9375 348.824219 388.597656 C 341.027344 385.21875 332.667969 382.382812 324.386719 380.480469 C 300.882812 373.171875 240.664062 377.773438 216 376.507812 L 216 353.378906 C 255.933594 354.316406 316.53125 348.328125 353.445312 365.484375 C 411.039062 387.941406 453.257812 443.941406 459.019531 505.488281 C 460.101562 515.925781 459.617188 527.46875 460.671875 537.894531 C 461.765625 547.789062 463.785156 557.820312 466.84375 567.292969 C 482.324219 616.816406 525.894531 655.894531 576.789062 665.910156 C 588.128906 668.199219 599.835938 669.015625 611.40625 668.84375 C 804.332031 668.839844 1031.035156 668.851562 1224.03125 668.84375 Z M 1224.03125 668.847656 " fill-opacity="1" fill-rule="nonzero"/></g><g clip-path="url(#f4b89d9c79)"><path fill="#e53373" d="M 1224.03125 632.175781 L 1224.03125 655.304688 C 1030.933594 655.285156 804.40625 655.316406 611.40625 655.304688 C 600.734375 655.457031 589.941406 654.753906 579.484375 652.640625 C 530.667969 643.085938 489.578125 603.953125 477.566406 555.683594 C 473.394531 540.78125 473.652344 524.8125 472.910156 509.488281 C 471.570312 489.816406 466.847656 470.339844 459.300781 452.132812 C 440 405.640625 400.757812 368.160156 353.46875 350.941406 C 316.457031 334.960938 255.402344 340.886719 216 339.835938 L 216 316.707031 C 230.496094 316.71875 295.441406 316.1875 308.261719 317.5 C 324.304688 318.84375 340.410156 322.144531 355.675781 327.265625 C 427.230469 350.410156 482.5625 415.4375 493.910156 489.792969 C 495.144531 497.503906 496.019531 506.074219 496.34375 513.871094 C 496.585938 520.957031 496.488281 530.359375 497.570312 537.320312 C 502.558594 578.023438 532.667969 614.136719 571.695312 626.644531 C 582.964844 630.441406 594.867188 632.148438 606.765625 632.175781 C 801.394531 632.171875 1029.316406 632.175781 1224.03125 632.175781 Z M 1224.03125 632.175781 " fill-opacity="1" fill-rule="nonzero"/></g><g clip-path="url(#650e4d4a9d)"><path fill="#fe7b31" d="M 79.554688 389.800781 C -62.253906 389.761719 -247.554688 389.828125 -389.195312 389.800781 C -399.824219 389.726562 -410.699219 388.976562 -421.171875 387.085938 C -444.136719 383.183594 -466.402344 374.671875 -486.191406 362.386719 C -536.863281 331.371094 -570.300781 274.625 -572.542969 215.226562 C -572.757812 205.703125 -572.832031 195.101562 -574.460938 185.714844 C -581.242188 141.816406 -611.730469 102.753906 -652.539062 85.300781 C -659.605469 82.234375 -667.183594 79.664062 -674.695312 77.9375 C -696.277344 71.085938 -757.191406 75.613281 -779.960938 74.332031 L -779.960938 97.457031 C -773.585938 97.804688 -699.53125 96.910156 -695.898438 97.90625 C -687.390625 98.601562 -678.84375 100.347656 -670.761719 103.074219 C -631.757812 115.671875 -601.757812 151.84375 -596.855469 192.578125 C -595.777344 199.917969 -595.902344 208.828125 -595.644531 216.257812 C -593.117188 283.171875 -555.46875 347.097656 -498.382812 382.035156 C -476.082031 395.878906 -450.988281 405.46875 -425.105469 409.875 C -413.355469 411.996094 -401.101562 412.851562 -389.195312 412.925781 C -194.570312 412.921875 33.359375 412.929688 228.070312 412.925781 L 228.070312 389.800781 Z M 79.554688 389.800781 " fill-opacity="1" fill-rule="nonzero"/></g><g clip-path="url(#428ca24690)"><path fill="#b3331f" d="M 228.070312 353.128906 L 228.070312 376.253906 C 34.972656 376.238281 -191.550781 376.269531 -384.554688 376.253906 C -395.964844 376.34375 -407.625 375.789062 -418.871094 373.738281 C -466.507812 365.808594 -509.664062 336.082031 -534.644531 294.816406 C -548.382812 272.101562 -556.839844 246.09375 -558.6875 219.589844 C -559.398438 210.855469 -559.039062 200.820312 -559.953125 192.089844 C -564.824219 140.414062 -599.398438 93.214844 -647.136719 72.878906 C -654.933594 69.5 -663.289062 66.664062 -671.574219 64.757812 C -695.078125 57.453125 -755.296875 62.054688 -779.960938 60.785156 L -779.960938 37.660156 C -740.023438 38.597656 -679.429688 32.609375 -642.511719 49.765625 C -584.921875 72.222656 -542.703125 128.222656 -536.941406 189.769531 C -535.859375 200.207031 -536.339844 211.75 -535.285156 222.175781 C -534.191406 232.066406 -532.175781 242.101562 -529.117188 251.574219 C -513.632812 301.097656 -470.066406 340.175781 -419.171875 350.191406 C -407.828125 352.476562 -396.121094 353.296875 -384.554688 353.125 C -191.628906 353.121094 35.074219 353.128906 228.070312 353.125 Z M 228.070312 353.128906 " fill-opacity="1" fill-rule="nonzero"/></g><g clip-path="url(#99f67f91ca)"><path fill="#e53373" d="M 228.070312 316.457031 L 228.070312 339.582031 C 34.972656 339.566406 -191.550781 339.59375 -384.554688 339.582031 C -395.222656 339.738281 -406.019531 339.035156 -416.472656 336.921875 C -465.292969 327.367188 -506.382812 288.234375 -518.394531 239.964844 C -522.566406 225.0625 -522.308594 209.089844 -523.050781 193.765625 C -524.386719 174.097656 -529.113281 154.617188 -536.65625 136.410156 C -555.960938 89.921875 -595.203125 52.441406 -642.492188 35.222656 C -679.503906 19.238281 -740.558594 25.167969 -779.960938 24.117188 L -779.960938 0.988281 C -765.464844 1 -700.519531 0.46875 -687.699219 1.78125 C -671.65625 3.121094 -655.546875 6.425781 -640.285156 11.546875 C -568.730469 34.691406 -513.394531 99.71875 -502.046875 174.074219 C -500.8125 181.78125 -499.941406 190.355469 -499.617188 198.152344 C -499.375 205.238281 -499.472656 214.640625 -498.390625 221.601562 C -493.398438 262.304688 -463.292969 298.414062 -424.265625 310.921875 C -412.996094 314.71875 -401.09375 316.425781 -389.195312 316.453125 C -194.566406 316.449219 33.359375 316.457031 228.070312 316.453125 Z M 228.070312 316.457031 " fill-opacity="1" fill-rule="nonzero"/></g><g clip-path="url(#090db191c5)"><path fill="#fe7b31" d="M 1591.621094 705.519531 C 1449.808594 705.480469 1264.507812 705.546875 1122.867188 705.519531 C 1112.238281 705.445312 1101.363281 704.699219 1090.890625 702.804688 C 1067.925781 698.902344 1045.660156 690.390625 1025.871094 678.105469 C 975.199219 647.089844 941.761719 590.347656 939.519531 530.949219 C 939.304688 521.425781 939.230469 510.824219 937.601562 501.4375 C 930.820312 457.535156 900.332031 418.472656 859.523438 401.019531 C 852.457031 397.957031 844.878906 395.382812 837.371094 393.660156 C 815.785156 386.808594 754.871094 391.332031 732.101562 390.050781 L 732.101562 413.179688 C 738.476562 413.523438 812.535156 412.628906 816.164062 413.625 C 824.671875 414.320312 833.21875 416.066406 841.300781 418.796875 C 880.304688 431.394531 910.304688 467.5625 915.207031 508.296875 C 916.285156 515.636719 916.160156 524.546875 916.417969 531.976562 C 918.945312 598.890625 956.59375 662.816406 1013.679688 697.753906 C 1035.980469 711.597656 1061.074219 721.191406 1086.957031 725.59375 C 1098.707031 727.714844 1110.960938 728.570312 1122.867188 728.648438 C 1317.492188 728.640625 1545.421875 728.648438 1740.132812 728.648438 L 1740.132812 705.519531 Z M 1591.621094 705.519531 " fill-opacity="1" fill-rule="nonzero"/></g><g clip-path="url(#8cfc0d2b75)"><path fill="#b3331f" d="M 1740.132812 668.847656 L 1740.132812 691.976562 C 1547.035156 691.957031 1320.511719 691.988281 1127.511719 691.976562 C 1116.097656 692.0625 1104.4375 691.507812 1093.191406 689.457031 C 1045.554688 681.527344 1002.398438 651.804688 977.417969 610.539062 C 963.679688 587.820312 955.222656 561.8125 953.375 535.308594 C 952.664062 526.574219 953.027344 516.539062 952.109375 507.808594 C 947.238281 456.136719 912.664062 408.9375 864.925781 388.597656 C 857.128906 385.21875 848.773438 382.382812 840.488281 380.480469 C 816.984375 373.171875 756.765625 377.773438 732.101562 376.507812 L 732.101562 353.378906 C 772.039062 354.316406 832.632812 348.328125 869.550781 365.484375 C 927.140625 387.941406 969.359375 443.941406 975.121094 505.488281 C 976.203125 515.925781 975.722656 527.46875 976.777344 537.894531 C 977.871094 547.789062 979.890625 557.820312 982.949219 567.292969 C 998.429688 616.816406 1042 655.894531 1092.890625 665.910156 C 1104.234375 668.199219 1115.941406 669.015625 1127.511719 668.84375 C 1320.433594 668.839844 1547.136719 668.851562 1740.132812 668.84375 Z M 1740.132812 668.847656 " fill-opacity="1" fill-rule="nonzero"/></g><g clip-path="url(#0b53e5254f)"><path fill="#e53373" d="M 1740.132812 632.175781 L 1740.132812 655.304688 C 1547.035156 655.285156 1320.511719 655.316406 1127.511719 655.304688 C 1116.839844 655.457031 1106.046875 654.753906 1095.589844 652.640625 C 1046.769531 643.085938 1005.679688 603.953125 993.671875 555.683594 C 989.496094 540.78125 989.753906 524.8125 989.011719 509.488281 C 987.675781 489.816406 982.949219 470.339844 975.40625 452.132812 C 956.101562 405.640625 916.859375 368.160156 869.570312 350.941406 C 832.558594 334.960938 771.503906 340.886719 732.101562 339.835938 L 732.101562 316.707031 C 746.597656 316.71875 811.542969 316.1875 824.363281 317.5 C 840.40625 318.84375 856.515625 322.144531 871.777344 327.265625 C 943.335938 350.410156 998.667969 415.4375 1010.015625 489.792969 C 1011.25 497.503906 1012.121094 506.074219 1012.445312 513.871094 C 1012.6875 520.957031 1012.589844 530.359375 1013.671875 537.320312 C 1018.664062 578.023438 1048.769531 614.136719 1087.796875 626.644531 C 1099.066406 630.441406 1110.96875 632.148438 1122.867188 632.175781 C 1317.496094 632.171875 1545.421875 632.175781 1740.132812 632.175781 Z M 1740.132812 632.175781 " fill-opacity="1" fill-rule="nonzero"/></g></svg>